<?xml version="1.0" encoding="UTF-8"?>
<svg width="1932px" height="289px" viewBox="0 0 1932 289" version="1.1" xmlns="http://www.w3.org/2000/svg" xmlns:xlink="http://www.w3.org/1999/xlink">
    <!-- Generator: Sketch 42 (36781) - http://www.bohemiancoding.com/sketch -->
    <title>logo</title>
    <desc>Created with Sketch.</desc>
    <defs></defs>
    <g id="Page-1" stroke="none" stroke-width="1" fill="none" fill-rule="evenodd">
        <g id="logo" transform="translate(-11.000000, -100.000000)">
            <g id="favicon" transform="translate(1077.000000, 243.000000) rotate(90.000000) translate(-1077.000000, -243.000000) translate(1009.000000, 169.000000)" fill="#000000">
                <path d="M39,73.792 C39,96.832 57.048,113.92 78.36,113.92 C91.416,113.92 101.976,107.008 107.736,97.792 C108.888,95.872 108.312,93.76 106.392,92.416 L104.28,90.88 C102.168,89.344 100.824,88.96 98.52,91.264 C94.104,95.488 89.688,101.248 78.168,101.248 C63.768,101.248 52.824,88.96 52.824,73.6 C52.824,58.24 63.96,46.336 78.36,46.336 C85.848,46.336 92.184,49.984 96.024,54.4 C97.752,55.936 98.712,57.856 101.592,55.168 L105.24,52.096 C106.968,50.752 107.352,48.448 106.008,46.72 C99.096,37.888 90.072,33.28 78.552,33.28 C57.624,33.28 39,51.136 39,73.792 Z" id="c"></path>
                <path d="M0,74.352381 C0,116.638095 35.4050412,148 77.2131218,148 C102.825279,148 123.540995,135.314286 134.840476,118.4 C137.100372,114.87619 135.970424,111 132.203931,108.533333 L128.060787,105.714286 C123.917644,102.895238 121.281099,102.190476 116.761306,106.419048 C108.098371,114.171429 99.4354349,124.742857 76.8364724,124.742857 C48.5877693,124.742857 27.118755,102.190476 27.118755,74 C27.118755,45.8095238 48.9644187,23.9619048 77.2131218,23.9619048 C91.9024474,23.9619048 104.331877,30.6571429 111.864864,38.7619048 C115.254709,41.5809524 117.137956,45.1047619 122.787696,40.1714286 L129.944034,34.5333333 C133.333879,32.0666667 134.087177,27.8380952 131.450632,24.6666667 C117.891254,8.45714286 100.188734,0 77.5897712,0 C36.5349893,0 0,32.7714286 0,74.352381 Z" id="c"></path>
            </g>
            <text id="use.xyz" font-family="BrandonGrotesque-Regular, Brandon Grotesque" font-size="288" font-weight="normal" letter-spacing="0.300000012">
                <tspan x="1023.092" y="302" fill="#000000">  use</tspan>
                <tspan x="1526.288" y="302" fill="#333333">.xyz</tspan>
            </text>
            <text id="chapterh" font-family="BrandonGrotesque-Regular, Brandon Grotesque" font-size="288" font-weight="normal" letter-spacing="0.300000012" fill="#000000">
                <tspan x="0.815999905" y="302">chapterh</tspan>
            </text>
            <path d="M37.3623159,368.668352 L1284.45356,368.668352 C1284.45356,368.668352 1873.66414,368.851758 1290.07323,368.851758 C706.482319,368.851758 72.9032964,368.547465 34.5617042,368.541852 C-3.77988791,368.536238 37.3623159,368.668352 37.3623159,368.668352 Z" id="Line" stroke="#000000" stroke-width="13" stroke-linecap="square"></path>
        </g>
    </g>
</svg>