<svg height="16pt" preserveAspectRatio="xMidYMid meet" viewBox="0 0 16 16" width="16pt" xmlns="http://www.w3.org/2000/svg"><g transform="matrix(.002667 0 0 -.002667 0 16)"><path d="m2715 5679c-840-81-1609-541-2098-1254-292-426-464-888-539-1445-17-129-17-606 0-730 72-521 261-985 562-1381 185-242 551-564 683-600 58-16 140-5 191 25 59 35 103 86 206 242 129 194 145 268 82 377-15 26-101 129-192 228-245 270-337 392-426 567-224 438-263 1047-99 1548 280 858 1137 1417 2073 1354 495-34 919-218 1265-549 545-523 745-1327 511-2055-88-273-242-525-450-741-209-216-230-262-173-376 19-39 266-358 328-423 79-84 197-109 296-62 89 42 327 271 480 461 151 188 315 479 399 708 74 201 132 464 156 706 14 146 14 465 0 606-112 1124-814 2115-1814 2563-274 122-567 200-876 232-109 11-447 11-565-1z"/><path d="m2779 4115c-713-116-1241-645-1340-1343-15-109-6-402 16-499 54-241 171-471 326-639 72-79 175-168 247-215 126-83 187-68 284 68 69 97 78 114 78 150 0 41-24 75-153 210-169 178-229 275-279 450-20 68-23 102-23 258 0 191 8 243 60 375 94 239 320 460 577 565 391 160 852 104 1167-139 179-139 306-330 366-551 26-93 31-323 11-425-40-194-123-342-285-507-92-94-108-123-97-168 6-23 156-206 205-249 13-12 41-21 74-24 46-3 58 0 101 29 26 18 87 71 135 118 197 193 316 409 372 673 30 138 33 424 6 568-59 313-210 594-446 831-236 235-501 380-826 449-130 28-446 36-576 15z"/></g></svg>