<?xml version="1.0" encoding="UTF-8"?>
<svg width="1060px" height="790px" viewBox="0 0 1060 790" version="1.1" xmlns="http://www.w3.org/2000/svg" xmlns:xlink="http://www.w3.org/1999/xlink">
    <!-- Generator: Sketch 51.2 (57519) - http://www.bohemiancoding.com/sketch -->
    <title>undraw_studying_s3l7</title>
    <desc>Created with Sketch.</desc>
    <defs>
        <linearGradient x1="49.9994939%" y1="99.9938881%" x2="49.9994939%" y2="-0.00994370708%" id="linearGradient-1">
            <stop stop-color="#808080" stop-opacity="0.25" offset="0%"></stop>
            <stop stop-color="#808080" stop-opacity="0.12" offset="54%"></stop>
            <stop stop-color="#808080" stop-opacity="0.1" offset="100%"></stop>
        </linearGradient>
    </defs>
    <g id="Page-1" stroke="none" stroke-width="1" fill="none" fill-rule="evenodd">
        <g id="undraw_studying_s3l7" fill-rule="nonzero">
            <path d="M1041.77,351.52 C1041.58,352.64 1041.39,353.76 1041.18,354.88 C1034.4,393.02 1023.33,429.79 1006.87,463.55 C1006.33,464.67 1005.78,465.79 1005.22,466.91 C994.656734,488.196951 981.685188,508.201183 966.56,526.53 C958.36,536.42 949.42,545.81 938.79,552.59 C923.89,562.09 906.47,565.95 889.35,569.11 C871.56,572.4 853.54,575.11 835.56,578.11 C829.186667,579.15 822.853333,580.24 816.56,581.38 C799.19,584.52 781.95,588.15 765.12,592.96 C744.31,598.96 724.12,606.69 705.12,617.64 C703.6,618.506667 702.096667,619.396667 700.61,620.31 C699.12,621.21 697.61,622.13 696.16,623.07 C694.71,624.01 693.25,624.94 691.81,625.89 L689.59,627.39 C688.86,627.87 688.14,628.39 687.42,628.87 C685.28,630.33 683.17,631.87 681.06,633.35 L680.98,633.41 C679.59,634.41 678.21,635.41 676.83,636.41 C669.04,642.18 661.42,648.22 653.83,654.28 L649.04,658.11 C646.566667,660.07 644.093333,662.026667 641.62,663.98 C640.17,665.13 638.7,666.27 637.24,667.41 C636.18,668.24 635.13,669.07 634.05,669.89 C628.64,674.06 623.16,678.14 617.57,682.04 C616.24,682.97 614.89,683.9 613.57,684.81 C602.380219,692.463835 590.478476,699.020844 578.03,704.39 L577.87,704.46 C571.738447,707.073518 565.429292,709.248973 558.99,710.97 C555.3,711.97 551.61,712.76 547.87,713.38 C537.906587,715.103263 527.736912,715.27866 517.72,713.9 C498.03,711.11 479.58,701.9 459.94,698.82 C419.42,692.53 380.07,712.82 341.94,728.75 C332.606667,732.656667 323.17,736.323333 313.63,739.75 C307.31,742.03 300.96,744.2 294.58,746.26 C255.711424,758.831696 215.660153,767.399512 175.05,771.83 C158.47,773.64 141.18,774.5 124.3,773.2 C117.925571,772.731531 111.582332,771.906909 105.3,770.73 C83.93,766.73 63.98,758.24 47.91,742.73 C34.56,730.04 25.14,713.45 17.96,696.14 C15.0733333,689.186667 12.53,682.073333 10.33,674.8 C6.87201075,663.400808 4.2747115,651.758088 2.56,639.97 C2.17,637.31 1.82,634.64 1.56,631.97 C1.04,627.39 0.653333333,622.79 0.4,618.17 C-1.00012003,593.615783 1.39811362,568.992568 7.51,545.17 C14.32,518.78 25.68,493.51 30.68,466.87 C30.89,465.75 31.08,464.63 31.27,463.51 C31.9366667,459.51 32.4433333,455.436667 32.79,451.29 C35.31,418.71 25.56,386.82 17.86,354.88 C17.59,353.76 17.32,352.64 17.06,351.52 C16.2266667,347.98 15.4366667,344.436667 14.69,340.89 C7.56,307.11 5.61,270.96 11.94,237.25 C12.14,236.13 12.37,235 12.6,233.89 C16.87,213.01 24.41,193.15 35.96,175.46 C47.81,157.3 63.37,142.19 79.96,128.91 C88.06,122.443333 96.4366667,116.393333 105.09,110.76 C111.31,106.72 117.643333,102.896667 124.09,99.29 C176.18,70.29 235.61,56.12 294.37,59.29 C297.483333,59.45 300.59,59.6633333 303.69,59.93 C306.943333,60.21 310.186667,60.5433333 313.42,60.93 C351.25,65.3 388.06,76.13 424.65,87.98 C436.91,91.98 449.14,95.98 461.37,99.98 C466.81,101.753333 472.246667,103.503333 477.68,105.23 C504.33,113.64 531.42,121.23 558.76,126.95 C565.1,128.283333 571.433333,129.5 577.76,130.6 C599.755085,134.540167 622.013577,136.833203 644.35,137.46 C653.016667,137.673333 661.683333,137.583333 670.35,137.19 C674.73,136.99 679.113333,136.696667 683.5,136.31 C728.81,132.43 772.5,119.42 816.37,107.2 C822.71,105.43 829.06,103.67 835.37,101.97 C843.71,99.73 852.06,97.56 860.44,95.56 C912.62,83.03 959.12,90.23 1007.63,116.07 C1018.63,121.94 1029.63,129.02 1036.43,139.98 C1043.23,150.94 1044.88,164.51 1046.14,177.57 C1047.92,196.15 1049.14,214.99 1049.53,233.91 C1049.53,235.03 1049.53,236.15 1049.6,237.27 C1050.48,275.58 1048.15,314.18 1041.77,351.52 Z" id="Shape" fill="#6C63FF" opacity="0.1"></path>
            <path d="M695.68,463.55 L692.27,463.55 L692.27,465.04 L692.27,466.91 L696.13,466.91 L695.68,463.55 Z M657.03,463.55 C657.025111,463.576443 657.025111,463.603557 657.03,463.63 L656.73,466.41 L656.73,466.66 L656.73,466.91 L686.33,466.91 L686.33,466.71 L688.44,463.55 L657.03,463.55 Z M577.88,463.55 L577.88,354.88 L611.88,354.88 C611.52,354.58 611.15,354.28 610.77,354 L610.27,353.62 C610.06,353.45 609.85,353.29 609.63,353.14 C609.41,352.99 608.89,352.61 608.5,352.35 C608.11,352.09 607.87,351.92 607.5,351.71 L607.27,351.56 L607.22,351.56 L577.88,351.56 L577.88,345.61 L577.09,345.99 L576.25,346.46 L576.19,346.46 L576.01,346.57 L575.49,346.91 C575.31,347.02 575.13,347.13 574.96,347.25 C574.44,347.6 573.96,347.98 573.41,348.37 L572.91,348.77 C572.57,349.03 572.25,349.3 571.91,349.57 C570.58,350.66 569.27,351.8 567.91,352.85 C567.57,353.12 567.23,353.38 566.91,353.63 C566.183019,354.162447 565.428653,354.656457 564.65,355.11 C564.32665,355.310927 563.992845,355.494519 563.65,355.66 L563.09,355.92 L562.58,356.14 C561.37884,356.646661 560.133585,357.041661 558.86,357.32 L558.86,463.55 L507.86,463.55 C507.86,463.67 507.93,463.78 507.96,463.9 C508.24,464.9 508.52,465.9 508.79,466.9 L558.87,466.9 L558.87,583.39 L559.65,583.39 L560.54,583.45 L562.16,583.57 L564.78,583.83 L565.96,583.97 L567.26,584.13 L567.45,584.13 C568.2,584.23 568.96,584.35 569.73,584.47 L570.22,584.55 L571.32,584.73 L572.9,585.01 L576.69,584.81 L577.21,584.92 C577.42,584.92 577.63,585 577.85,585.05 L577.85,466.91 L656.66,466.91 L656.66,466.66 L656.66,466.41 L656.96,463.63 C656.955111,463.603557 656.955111,463.576443 656.96,463.55 L577.88,463.55 Z M695.68,463.55 L692.27,463.55 L692.27,465.04 L692.27,466.91 L696.13,466.91 L695.68,463.55 Z M654.9,463.55 L654.56,466.91 L687.49,466.91 L689.73,463.55 L654.9,463.55 Z M577.9,463.55 L577.9,354.88 L611.9,354.88 C611.54,354.58 611.17,354.28 610.79,354 L610.29,353.62 C610.08,353.45 609.87,353.29 609.65,353.14 C609.43,352.99 608.91,352.61 608.52,352.35 C608.13,352.09 607.89,351.92 607.52,351.71 L607.29,351.56 L607.22,351.56 L577.88,351.56 L577.88,345.61 L577.09,345.99 L576.25,346.46 L576.19,346.46 L576.01,346.57 L575.49,346.91 C575.31,347.02 575.13,347.13 574.96,347.25 C574.44,347.6 573.96,347.98 573.41,348.37 L572.91,348.77 C572.57,349.03 572.25,349.3 571.91,349.57 C570.58,350.66 569.27,351.8 567.91,352.85 C567.57,353.12 567.23,353.38 566.91,353.63 C566.183019,354.162447 565.428653,354.656457 564.65,355.11 C564.32665,355.310927 563.992845,355.494519 563.65,355.66 L563.09,355.92 L562.58,356.14 C561.37884,356.646661 560.133585,357.041661 558.86,357.32 L558.86,463.55 L507.86,463.55 C507.86,463.67 507.93,463.78 507.96,463.9 C508.24,464.9 508.53,465.9 508.8,466.9 L558.87,466.9 L558.87,583.38 L559.65,583.43 L560.54,583.49 L562.16,583.61 L564.78,583.87 L565.96,584.01 L567.26,584.17 L567.45,584.17 C568.2,584.27 568.96,584.39 569.73,584.51 L570.22,584.59 L571.32,584.77 L572.9,585.05 L576.69,584.85 L577.21,584.96 C577.42,584.96 577.63,585.04 577.85,585.09 L577.85,466.91 L654.56,466.91 L654.92,463.55 L577.9,463.55 Z M835.56,237.25 L1049.79,237.25 C1049.79,236.13 1049.79,235.01 1049.72,233.89 L835.56,233.89 L835.56,101.95 C829.2,103.65 822.85,105.41 816.56,107.18 L816.56,233.89 L583.56,233.89 L582.97,233.25 L583.86,232.25 L670.52,137.14 C661.853333,137.54 653.186667,137.63 644.52,137.41 L577.88,210.51 L577.88,130.58 C571.52,129.48 565.186667,128.263333 558.88,126.93 L558.88,206.83 L461.45,99.96 C449.22,95.96 436.99,91.89 424.73,87.96 L557.16,233.25 L556.57,233.89 L313.5,233.89 L313.5,60.89 C310.26,60.5233333 307.016667,60.19 303.77,59.89 C300.67,59.6166667 297.563333,59.4033333 294.45,59.25 L294.45,233.89 L124.17,233.89 L124.17,99.29 C117.71,102.89 111.376667,106.713333 105.17,110.76 L105.17,233.89 L12.56,233.89 C12.33,235 12.1,236.13 11.9,237.25 L105.09,237.25 L105.09,351.52 L17.06,351.52 C17.32,352.64 17.59,353.76 17.86,354.88 L105.13,354.88 L105.13,463.55 L31.24,463.55 C31.05,464.67 30.86,465.79 30.65,466.91 L105.13,466.91 L105.13,770.76 C111.412332,771.936909 117.755571,772.761531 124.13,773.23 L124.13,466.91 L294.45,466.91 L294.45,746.29 C300.836667,744.216667 307.186667,742.046667 313.5,739.78 L313.5,466.91 L558.84,466.91 L558.84,711.01 C565.279292,709.288973 571.588447,707.113518 577.72,704.5 L577.88,704.43 L577.88,466.91 L816.5,466.91 L816.5,581.38 C822.826667,580.24 829.16,579.15 835.5,578.11 L835.5,466.91 L1005.17,466.91 C1005.73,465.79 1006.28,464.67 1006.82,463.55 L835.56,463.55 L835.56,354.88 L1041.19,354.88 C1041.4,353.76 1041.59,352.64 1041.78,351.52 L835.56,351.52 L835.56,237.25 Z M124.18,237.25 L294.45,237.25 L294.45,351.52 L124.17,351.52 L124.18,237.25 Z M124.18,463.55 L124.18,354.88 L294.45,354.88 L294.45,463.55 L124.18,463.55 Z M313.51,237.25 L558.84,237.25 L558.84,351.52 L313.5,351.52 L313.51,237.25 Z M313.51,463.55 L313.51,354.88 L558.84,354.88 L558.84,463.55 L313.51,463.55 Z M816.51,463.55 L577.88,463.55 L577.88,354.88 L816.5,354.88 L816.51,463.55 Z M816.51,351.55 L577.88,351.55 L577.88,240.31 L581.23,237.25 L816.5,237.25 L816.51,351.55 Z M657.04,463.55 C657.035111,463.576443 657.035111,463.603557 657.04,463.63 L656.74,466.41 L656.74,466.66 L656.74,466.91 L686.34,466.91 L686.34,466.71 L688.45,463.55 L657.04,463.55 Z M695.69,463.55 L692.28,463.55 L692.28,465.04 L692.28,466.91 L696.14,466.91 L695.69,463.55 Z M577.89,463.55 L577.89,354.88 L611.89,354.88 C611.53,354.58 611.16,354.28 610.78,354 L610.28,353.62 C610.07,353.45 609.86,353.29 609.64,353.14 C609.42,352.99 608.9,352.61 608.51,352.35 C608.12,352.09 607.88,351.92 607.51,351.71 L607.28,351.56 L607.23,351.56 L577.88,351.56 L577.88,345.61 L577.09,345.99 L576.25,346.46 L576.19,346.46 L576.01,346.57 L575.49,346.91 C575.31,347.02 575.13,347.13 574.96,347.25 C574.44,347.6 573.96,347.98 573.41,348.37 L572.91,348.77 C572.57,349.03 572.25,349.3 571.91,349.57 C570.58,350.66 569.27,351.8 567.91,352.85 C567.57,353.12 567.23,353.38 566.91,353.63 C566.183019,354.162447 565.428653,354.656457 564.65,355.11 C564.32665,355.310927 563.992845,355.494519 563.65,355.66 L563.09,355.92 L562.58,356.14 C561.37884,356.646661 560.133585,357.041661 558.86,357.32 L558.86,463.55 L507.86,463.55 C507.86,463.67 507.93,463.78 507.96,463.9 C508.24,464.9 508.52,465.9 508.79,466.9 L558.87,466.9 L558.87,583.39 L559.65,583.39 L560.54,583.45 L562.16,583.57 L564.78,583.83 L565.96,583.97 L567.26,584.13 L567.45,584.13 C568.2,584.23 568.96,584.35 569.73,584.47 L570.22,584.55 L571.32,584.73 L572.9,585.01 L576.69,584.81 L577.21,584.92 C577.42,584.92 577.63,585 577.85,585.05 L577.85,466.91 L656.66,466.91 L656.66,466.66 L656.66,466.41 L656.96,463.63 C656.955111,463.603557 656.955111,463.576443 656.96,463.55 L577.89,463.55 Z" id="Shape" fill="#6C63FF" opacity="0.1"></path>
            <path d="M206.04,158.57 L207.56,158.57 C206.503568,157.958584 205.823911,156.858366 205.75,155.64 C205.75,153.32 208.59,151.43 212.06,151.43 L256.21,151.43 C259.68,151.43 262.52,153.32 262.52,155.64 C262.52,157.95 259.68,159.85 256.21,159.85 L254.74,159.85 C255.791303,160.465146 256.466473,161.564173 256.54,162.78 C256.54,164.78 254.48,166.42 251.72,166.87 L264.43,166.87 C267.89,166.87 270.73,168.76 270.73,171.08 C270.73,173.4 267.89,175.28 264.43,175.28 L220.23,175.28 C216.77,175.28 213.93,173.39 213.93,171.08 C213.93,169.08 215.99,167.44 218.75,166.99 L206.04,166.99 C202.58,166.99 199.74,165.1 199.74,162.78 C199.74,160.46 202.56,158.57 206.04,158.57 Z" id="Shape" fill="#6C63FF" opacity="0.1"></path>
            <path d="M684.56,198.64 L686.04,198.64 C684.982022,198.025328 684.302412,196.921432 684.23,195.7 C684.23,193.39 687.07,191.5 690.54,191.5 L734.69,191.5 C738.16,191.5 741,193.39 741,195.7 C741,198.02 738.16,199.91 734.69,199.91 L733.22,199.91 C734.272849,200.528395 734.947975,201.631101 735.02,202.85 C735.02,204.85 732.96,206.48 730.2,206.93 L742.91,206.93 C746.37,206.93 749.21,208.83 749.21,211.14 C749.21,213.45 746.37,215.35 742.91,215.35 L698.77,215.35 C695.31,215.35 692.47,213.46 692.47,211.14 C692.47,209.14 694.53,207.5 697.29,207.06 L684.56,207.06 C681.1,207.06 678.26,205.16 678.26,202.85 C678.26,200.54 681.12,198.64 684.56,198.64 Z" id="Shape" fill="#6C63FF" opacity="0.1"></path>
            <path d="M138.31,370.11 L139.79,370.11 C138.737151,369.491605 138.062025,368.388899 137.99,367.17 C137.99,364.86 140.82,362.96 144.29,362.96 L188.44,362.96 C191.91,362.96 194.75,364.86 194.75,367.17 C194.75,369.49 191.91,371.38 188.44,371.38 L186.97,371.38 C188.022849,371.998395 188.697975,373.101101 188.77,374.32 C188.77,376.32 186.71,377.95 183.95,378.4 L196.66,378.4 C200.13,378.4 202.96,380.29 202.96,382.61 C202.96,384.93 200.13,386.82 196.66,386.82 L152.5,386.82 C149.04,386.82 146.2,384.92 146.2,382.61 C146.2,380.61 148.27,378.97 151.02,378.52 L138.31,378.52 C134.85,378.52 132.01,376.63 132.01,374.32 C132.01,372.01 134.85,370.11 138.31,370.11 Z" id="Shape" fill="#6C63FF" opacity="0.1"></path>
            <path d="M648.92,658.15 C646.446667,660.11 643.973333,662.066667 641.5,664.02 C640.05,665.17 638.58,666.31 637.12,667.45 C636.06,668.28 635.01,669.11 633.93,669.93 C628.52,674.1 623.04,678.18 617.45,682.08 C616.12,683.01 614.77,683.94 613.45,684.85 C602.260219,692.503835 590.358476,699.060844 577.91,704.43 L577.75,704.5 L577.75,658.15 L648.92,658.15 Z" id="Shape" fill="#65617D"></path>
            <path d="M760.2,475.99 L761.32,441.44 C760.65,440.92 759.97,440.44 759.32,439.96 C759.596275,429.658848 759.007542,419.35268 757.56,409.15 C753.04,374.6 723.69,373.85 715.41,380.98 C714.312656,381.926939 713.115625,382.751785 711.84,383.44 C712.59,378.51 713.52,373.57 714.19,368.69 C717.81,342.37 712.19,312.76 691.77,295.75 C683.22,288.64 672.77,284.27 663.38,278.32 C646.56,267.71 633.27,252.04 616.26,241.71 C599.25,231.38 575.36,227.51 560.52,240.79 C554.77,245.93 551.06,253.06 545.16,258.02 C534.16,267.26 517.01,267.87 507.41,278.19 C506.93,278.71 506.47,279.24 506.03,279.8 C498.03,290.06 500.22,304.61 502.77,317.34 C505.84,332.66 504.57,344.94 517.71,349.34 C517.76,349.95 517.8,350.56 517.87,351.16 C520.033821,370.183237 530.485611,387.280843 546.43,397.88 L544.3,398.64 C538.62,400.64 533.51,402.58 530.24,403.91 C518.24,408.8 492.98,415.17 492.98,415.17 C492.98,415.17 492.38,422.37 492.49,432.99 C484.07,442.14 470.02,458.22 465.89,467.75 C459.89,481.65 425.99,521.46 416.96,527.47 C407.93,533.48 398.14,540.61 398.14,540.61 C398.14,540.61 383.84,548.5 377.07,549.25 C372.38,549.77 357.87,546.99 357.87,546.99 C357.87,546.99 299.92,475.99 303.68,530.47 C307.44,584.95 353.73,586.8 353.73,586.8 L400.4,586.05 C400.4,586.05 425.62,589.43 436.91,580.05 C446.55,572.05 496.51,528.16 512.56,508.25 C512.93,508.66 513.3,509.06 513.69,509.45 C513.69,509.45 520.08,501.19 520.84,509.45 C521.6,517.71 516.69,521.45 519.33,524.45 C521.97,527.45 529.87,537.97 530.24,542.1 C530.61,546.23 519.71,563.1 538.14,575.9 C538.43,576.1 538.74,576.29 539.08,576.48 C542.37,583.97 552.83,591.3 552.83,591.3 L609.28,590.55 L715.79,598.81 C715.79,598.81 718.96,596.02 723.25,591.46 C728.98,596.72 736.93,601.23 745.89,598.46 C745.89,598.46 758.69,583.07 759.07,572.93 C759.07,572.93 750.79,551.52 747.07,545.14 C743.35,538.76 749.71,524.86 749.71,524.86 C749.71,524.86 754.22,511.34 756.86,511.34 C759.5,511.34 757.61,502.34 757.61,502.34 C755.58379,499.353318 755.161004,495.559472 756.48,492.2 C758.69,486.51 760.2,475.99 760.2,475.99 Z" id="Shape" fill="url(#linearGradient-1)"></path>
            <path d="M696.35,468.21 L692.35,472.89 L676.19,491.71 L655.08,492.99 L621.29,495.07 C621.29,495.07 575.73,440.17 584.29,428.22 C587.4,423.91 587.91,418.22 587.29,412.85 C587.21,412.11 587.1,411.37 586.97,410.64 C585.945815,404.95807 584.156191,399.441182 581.65,394.24 L582.77,393.73 L583.49,393.4 L623.33,375.22 L633.19,370.72 C633.680984,373.437688 634.591882,376.062422 635.89,378.5 C636.08,378.88 636.29,379.26 636.51,379.62 C650.1,402.12 693.68,387.89 693.68,387.89 L696.35,468.21 Z" id="Shape" fill="#EE8E9E"></path>
            <path d="M755.26,440.12 C754.96,453.74 752.74,459.62 752.74,459.62 L696.35,468.21 L694.24,453.57 L685.89,395.76 L693.73,387.92 C700.078033,389.289123 706.701987,387.634058 711.66,383.44 C719.87,376.34 749,377.09 753.48,411.44 C754.795941,420.941412 755.390973,430.528786 755.26,440.12 Z" id="Shape" fill="#EE8E9E"></path>
            <path d="M741.91,599.65 C741.91,599.65 754.6,584.34 754.98,574.26 L742.28,552.97 L731.08,540.97 L710.16,581.35 C710.16,581.35 723.98,605.25 741.91,599.65 Z" id="Shape" fill="#DFE5EE"></path>
            <path d="M741.91,599.65 C741.91,599.65 754.6,584.34 754.98,574.26 L742.28,552.97 L731.08,540.97 L710.16,581.35 C710.16,581.35 723.98,605.25 741.91,599.65 Z" id="Shape" fill="#000000" opacity="0.1"></path>
            <path d="M637.12,667.45 C636.06,668.28 635.01,669.11 633.93,669.93 C628.52,674.1 623.04,678.18 617.45,682.08 C616.12,683.01 614.77,683.94 613.45,684.85 L558.84,684.85 L313.5,684.85 L294.45,684.85 L200.07,681.47 L124.17,680.83 L105.17,679.83 L10.37,674.83 C6.89702159,663.422067 4.28633575,651.769249 2.56,639.97 C2.17,637.31 1.82,634.64 1.56,631.97 L105.13,637.71 L124.13,638.78 L294.41,648.28 L313.46,649.34 L558.8,663.04 L577.68,664.1 L577.84,664.1 L637.12,667.45 Z" id="Shape" fill="#D48A9B"></path>
            <path d="M765.06,592.96 C744.25,598.96 724.06,606.69 705.06,617.64 C703.55,618.51 702.06,619.4 700.55,620.31 C699.04,621.22 697.55,622.13 696.1,623.07 C694.65,624.01 693.19,624.94 691.75,625.89 L689.53,627.39 L687.36,628.87 C685.22,630.34 683.11,631.87 681,633.35 L680.92,633.41 C679.53,634.41 678.15,635.41 676.77,636.41 C668.98,642.18 661.36,648.22 653.77,654.28 C652.17,655.56 650.566667,656.836667 648.96,658.11 L641.56,663.98 C640.11,665.13 638.64,666.27 637.18,667.41 C636.12,668.24 635.07,669.07 633.99,669.89 L577.99,667.22 L577.83,667.22 L558.95,666.34 L313.5,654.71 L294.45,653.8 L124.17,645.71 L105.17,644.8 L2.56,639.97 C2.17,637.31 1.82,634.64 1.56,631.97 C1.04,627.39 0.653333333,622.79 0.4,618.17 L105.16,581.17 L124.16,574.44 L141.42,568.34 L172.87,569.98 L245.56,573.71 L294.48,576.28 L313.53,577.28 L325.7,577.92 L328.61,578.08 L431.03,583.43 L432.11,583.5 L477.81,585.88 L478.33,585.88 L478.63,585.88 L483.2,586.11 L498.78,586.93 L518.26,587.93 L524.68,588.27 L525.89,588.34 L534.97,588.81 L537.56,588.94 L546.23,589.4 L549.68,589.59 L549.79,589.59 L550.51,589.59 L558.62,590.02 L571.18,590.68 L571.24,590.68 L575.14,590.88 L575.56,590.88 L577.89,591.01 L583.61,591.31 L588.61,591.57 L588.66,591.57 L594.27,591.86 L594.36,591.86 L598.61,592.09 L601.87,592.26 L613.44,592.87 L615.52,592.98 L616.24,592.98 L617.24,593.04 L620.63,593.22 L622.15,593.3 L633.95,593.91 L635.03,593.91 L652.45,593.76 L652.57,593.76 L718.8,593.22 L720.07,593.22 L721.41,593.22 L725.35,593.22 L746.67,593.05 L749.85,593.05 L765.06,592.96 Z" id="Shape" fill="#EFC6CD"></path>
            <path d="M318.07,594.33 L324.23,627.1 L491.71,624.58 C491.71,624.58 504.31,628.22 504.03,618.14 C504.03,618.14 529.52,594.05 658.63,622.06 L609.06,583.13 L473.56,590.41 L316.44,586.21 L318.07,594.33 Z" id="Shape" fill="#6C63FF"></path>
            <path d="M321.15,586.49 L327.03,622.06 C327.03,622.06 471.03,617.86 493.67,621.78 L476.56,589.29 C476.56,589.29 389.49,581.17 321.15,586.49 Z" id="Shape" fill="#FFFFFF"></path>
            <path d="M321.15,586.49 L327.03,622.06 C327.03,622.06 471.03,617.86 493.67,621.78 L476.56,589.29 C476.56,589.29 389.49,581.17 321.15,586.49 Z" id="Shape" fill="#000000" opacity="0.1"></path>
            <path d="M323.3,586.36 L329.1,619.44 C329.1,619.44 471.27,615.54 493.67,619.18 L476.8,588.97 C476.8,588.97 390.78,581.41 323.3,586.36 Z" id="Shape" fill="#FFFFFF"></path>
            <path d="M325.91,587.38 L331.56,618.32 C331.56,618.32 470.61,614.67 492.56,618.08 L476.06,589.81 C476.06,589.81 391.92,582.71 325.91,587.38 Z" id="Shape" fill="#000000" opacity="0.1"></path>
            <path d="M327.03,586.25 L332.71,617.25 C332.71,617.25 471.76,613.6 493.71,617.01 L477.17,588.71 C477.17,588.71 393.04,581.62 327.03,586.25 Z" id="Shape" fill="#FFFFFF"></path>
            <path d="M228.65,502.12 C228.65,502.12 235.93,511.63 225.3,526 C214.67,540.37 205.89,552.49 209.44,561.45 C209.44,561.45 225.44,534.77 238.54,534.45 C251.64,534.13 243.02,518.16 228.65,502.12 Z" id="Shape" fill="#6C63FF"></path>
            <path d="M228.65,502.12 C229.289682,503.042358 229.791616,504.052964 230.14,505.12 C242.88,520.12 249.67,534.12 237.42,534.42 C226.01,534.74 212.33,555.14 209.05,560.3 C209.163333,560.686667 209.293333,561.076667 209.44,561.47 C209.44,561.47 225.44,534.79 238.54,534.47 C251.64,534.15 243.02,518.16 228.65,502.12 Z" id="Shape" fill="#000000" opacity="0.1"></path>
            <path d="M242.18,514.25 C242.18,517.59 241.8,520.31 241.34,520.31 C240.88,520.31 240.5,517.59 240.5,514.25 C240.5,510.91 240.97,512.47 241.43,512.47 C241.89,512.47 242.18,510.9 242.18,514.25 Z" id="Shape" fill="#FFD037"></path>
            <path d="M246.82,518.24 C243.88,519.85 241.32,520.82 241.1,520.41 C240.88,520 243.1,518.41 246.02,516.77 C248.94,515.13 247.8,516.33 248.02,516.77 C248.24,517.21 249.76,516.64 246.82,518.24 Z" id="Shape" fill="#FFD037"></path>
            <path d="M190.22,502.12 C190.22,502.12 182.94,511.63 193.58,526 C204.22,540.37 212.98,552.49 209.44,561.45 C209.44,561.45 193.39,534.77 180.33,534.45 C167.27,534.13 175.85,518.16 190.22,502.12 Z" id="Shape" fill="#6C63FF"></path>
            <path d="M190.22,502.12 C189.585521,503.045422 189.083969,504.055258 188.73,505.12 C175.99,520.12 169.2,534.12 181.45,534.42 C192.86,534.74 206.55,555.14 209.83,560.3 C209.723333,560.686667 209.593333,561.076667 209.44,561.47 C209.44,561.47 193.39,534.79 180.33,534.47 C167.27,534.15 175.85,518.16 190.22,502.12 Z" id="Shape" fill="#000000" opacity="0.1"></path>
            <path d="M176.69,514.25 C176.69,517.59 177.07,520.31 177.53,520.31 C177.99,520.31 178.37,517.59 178.37,514.25 C178.37,510.91 177.9,512.47 177.44,512.47 C176.98,512.47 176.69,510.9 176.69,514.25 Z" id="Shape" fill="#FFD037"></path>
            <path d="M172.05,518.24 C174.99,519.85 177.56,520.82 177.78,520.41 C178,520 175.78,518.41 172.86,516.77 C169.94,515.13 171.08,516.33 170.86,516.77 C170.64,517.21 169.11,516.64 172.05,518.24 Z" id="Shape" fill="#FFD037"></path>
            <path d="M248.56,548.62 L248.2,551.62 L247.69,555.81 L247.48,557.56 L246.97,561.76 L246.75,563.51 L246.23,567.71 L240.41,615.43 C239.89,619.69 232.93,623.01 224.53,623.01 L194.31,623.01 C185.91,623.01 178.96,619.69 178.44,615.43 L172.61,567.71 L172.1,563.51 L171.89,561.76 L171.37,557.56 L171.16,555.81 L170.65,551.62 L170.28,548.62 C169.99,546.21 173.75,544.18 178.51,544.18 L240.37,544.18 C245.12,544.18 248.89,546.21 248.56,548.62 Z" id="Shape" fill="#65617D"></path>
            <polygon id="Shape" fill="#9D9CB5" points="248.23 551.59 247.72 555.79 171.16 555.79 170.65 551.59"></polygon>
            <polygon id="Shape" fill="#9D9CB5" points="247.51 557.54 247 561.74 171.89 561.74 171.37 557.54"></polygon>
            <polygon id="Shape" fill="#9D9CB5" points="246.78 563.49 246.27 567.68 172.61 567.68 172.1 563.49"></polygon>
            <path d="M340.85,544.76 C340.85,544.76 321.43,526.09 322.18,550.36 C322.93,574.63 340.85,544.76 340.85,544.76 Z" id="Shape" fill="#EE8E9E"></path>
            <path d="M515.24,502.19 C514.81,504.07 512.72,507.19 509.46,511.1 C492.62,531.38 444.71,573.53 435.32,581.35 C424.12,590.69 399.1,587.35 399.1,587.35 L352.8,588.1 C352.8,588.1 306.87,586.23 303.13,532.1 C299.39,477.97 356.9,548.53 356.9,548.53 C356.9,548.53 371.3,551.29 375.95,550.77 C382.67,550.03 396.86,542.19 396.86,542.19 C396.86,542.19 406.57,535.09 415.53,529.12 C424.49,523.15 458.1,483.56 464.08,469.74 C467.87,460.97 480.08,446.63 488.51,437.33 C493.35,431.98 496.94,428.33 496.94,428.33 C496.94,428.33 517.85,490.61 515.24,502.19 Z" id="Shape" fill="#EE8E9E"></path>
            <path d="M515.24,502.19 C514.81,504.07 512.72,507.19 509.46,511.1 C492.46,493.79 488.91,459.25 488.51,437.29 C493.35,431.94 496.94,428.29 496.94,428.29 C496.94,428.29 517.85,490.61 515.24,502.19 Z" id="Shape" fill="#000000" opacity="0.1"></path>
            <path d="M692.34,472.89 L676.19,491.71 L655.08,492.99 L621.29,495.07 C621.29,495.07 575.73,440.17 584.29,428.22 C587.4,423.91 587.91,418.22 587.29,412.85 C587.21,412.11 587.1,411.37 586.97,410.64 C585.945815,404.95807 584.156191,399.441182 581.65,394.24 L582.77,393.73 L583.49,393.4 C585.268129,398.353561 586.495522,403.48782 587.15,408.71 C587.26,409.42 587.36,410.16 587.46,410.92 C587.81,413.62 588.13,416.62 588.46,419.92 C591.06,450.14 610.07,461.51 618.65,465.13 C621.408769,466.293542 624.105685,467.598609 626.73,469.04 C634.984641,473.592333 644.503894,475.313526 653.83,473.94 C675.01,471.16 692.28,455.77 692.28,455.77 L692.37,470.92 L692.34,472.89 Z" id="Shape" fill="#000000" opacity="0.1"></path>
            <path d="M692.99,590.32 C692.99,590.32 554.08,589.94 535.77,577.25 C517.46,564.56 528.31,547.75 527.93,543.64 C527.55,539.53 519.72,529.08 517.11,526.08 C514.5,523.08 519.35,519.36 518.6,511.15 C517.85,502.94 511.51,511.15 511.51,511.15 C485.36,484.63 490.96,417.42 490.96,417.42 C490.96,417.42 515.96,411.08 527.96,406.21 C531.21,404.89 536.27,403.01 541.96,400.98 L544.07,400.22 C558.74,394.97 576.18,389.04 576.18,389.04 C576.18,389.04 579.53,386.67 582.9,393.76 C584.44,397.02 585.99,402.27 587.23,410.66 C587.34,411.37 587.44,412.11 587.54,412.87 C587.89,415.57 588.21,418.57 588.54,421.87 C591.14,452.09 610.15,463.46 618.73,467.08 C621.488769,468.243542 624.185685,469.548609 626.81,470.99 C635.064641,475.542333 644.583894,477.263526 653.91,475.89 C675.09,473.11 692.36,457.72 692.36,457.72 L692.45,472.87 L692.71,518.39 L692.99,590.32 Z" id="Shape" fill="#DFE5EE"></path>
            <path d="M687.01,531.32 L684.77,545.51 C684.77,545.51 629.5,559.32 607.85,563.43 C586.2,567.54 539.51,562.31 536.15,571.27 C532.79,580.23 550.34,592.56 550.34,592.56 L606.34,591.81 L712.02,600.03 C712.02,600.03 752.35,564.55 739.28,539.9 C726.21,515.25 687.01,531.32 687.01,531.32 Z" id="Shape" fill="#EE8E9E"></path>
            <path d="M573.12,419.29 C573.12,419.29 547.72,440.2 552.58,450.29 C557.44,460.38 573.12,419.29 573.12,419.29 Z" id="Shape" fill="#000000" opacity="0.1"></path>
            <path d="M541.75,457 C541.75,457 515.98,501.44 517.48,504.8 C518.98,508.16 526.07,520.11 525.69,511.15 C525.31,502.19 541.75,457 541.75,457 Z" id="Shape" fill="#000000" opacity="0.1"></path>
            <path d="M552.21,464.85 C552.21,464.85 546.21,492.48 540.26,504.06 C534.31,515.64 552.21,464.85 552.21,464.85 Z" id="Shape" fill="#000000" opacity="0.1"></path>
            <path d="M636.56,379.65 C626.5403,398.022657 608.241349,410.403333 587.46,412.87 L587.34,412.87 C571.229333,414.761848 554.997424,410.512844 541.88,400.97 C556.88,395.55 576.1,389.03 576.1,389.03 C576.1,389.03 579.45,386.66 582.82,393.75 L633.24,370.75 C633.806429,373.891089 634.930847,376.905342 636.56,379.65 Z" id="Shape" fill="#000000" opacity="0.1"></path>
            <path d="M644.44,346.47 C644.458614,357.716049 641.527805,368.770369 635.94,378.53 C633.270788,383.183995 630.036238,387.490011 626.31,391.35 C615.914449,402.17349 602.061935,409.021923 587.15,410.71 L587.02,410.71 C584.636413,410.983119 582.239183,411.120008 579.84,411.12 C546.978702,411.120771 519.353255,386.451965 515.65,353.8 C515.371931,351.38002 515.235032,348.945899 515.24,346.51 C515.24,310.832405 544.162405,281.91 579.84,281.91 C615.517595,281.91 644.44,310.832405 644.44,346.51 L644.44,346.47 Z" id="Shape" fill="#EE8E9E"></path>
            <path d="M686.27,468.71 L692.27,459.71 C692.27,459.71 725.13,420.5 757.27,445.52 L756.15,479.88 C756.15,479.88 754.65,490.33 752.41,495.88 C751.103981,499.223215 751.522606,502.994577 753.53,505.97 C753.53,505.97 755.4,514.97 752.79,514.97 C750.18,514.97 745.69,528.41 745.69,528.41 C745.69,528.41 739.34,542.23 743.08,548.58 C746.82,554.93 755.03,576.21 755.03,576.21 C755.03,576.21 741.96,568.37 738.22,555.3 C738.22,555.3 706.48,530.65 681.83,546.3 L686.27,468.71 Z" id="Shape" fill="#000000" opacity="0.1"></path>
            <path d="M755.26,440.12 C754.96,453.74 752.74,459.62 752.74,459.62 L696.35,468.21 L694.24,453.57 C701.62,445.87 728.46,421.39 755.26,440.12 Z" id="Shape" fill="#000000" opacity="0.1"></path>
            <path d="M686.27,466.71 L692.27,457.71 C692.27,457.71 725.13,418.5 757.27,443.52 L756.15,477.88 C756.15,477.88 754.65,488.33 752.41,493.88 C751.103981,497.223215 751.522606,500.994577 753.53,503.97 C753.53,503.97 755.4,512.97 752.79,512.97 C750.18,512.97 745.69,526.41 745.69,526.41 C745.69,526.41 739.34,540.23 743.08,546.58 C746.82,552.93 755.03,574.21 755.03,574.21 C755.03,574.21 741.96,566.37 738.22,553.3 C738.22,553.3 706.48,528.65 681.83,544.3 L686.27,466.71 Z" id="Shape" fill="#DFE5EE"></path>
            <path d="M739.29,441.32 C739.29,441.32 685.15,474.56 687.76,503.71 C687.76,503.71 718.01,450.28 739.29,441.32 Z" id="Shape" fill="#000000" opacity="0.1"></path>
            <path d="M692.33,472.9 L692.59,518.42 C682.35,518.88 672.7,517.55 665.07,510.92 C659.76,506.3 656.67,499.92 655.07,493.02 C653.879628,487.460468 653.442375,481.766094 653.77,476.09 C653.764695,476.033457 653.764695,475.976543 653.77,475.92 C654.4,463.35 657.29,450.78 655.77,438.29 C654.25,425.8 646.68,412.62 634.32,409.99 C631.88,409.46 629.14,409.27 627.4,407.48 C625.48,405.48 625.57,402.37 625.78,399.6 L626.14,394.93 C626.23,393.73 626.27,392.54 626.27,391.35 C626.255034,369.45492 610.754858,350.628489 589.27,346.41 L588.87,346.34 C585.39,345.64 581.77,344.95 578.29,345.75 C571.67,347.28 567.39,353.7 561.29,356.75 C549.59,362.59 530.08,356.2 517.83,354.19 C517.03,354.06 516.27,353.91 515.54,353.74 C515.261931,351.32002 515.125032,348.885899 515.13,346.45 C515.142407,319.333842 532.087877,295.111523 557.556666,285.804162 C583.025456,276.496802 611.596055,284.085645 629.089369,304.804481 C646.582683,325.523317 649.274932,354.961752 635.83,378.51 C636.02,378.89 636.23,379.27 636.45,379.63 C650.04,402.13 693.62,387.9 693.62,387.9 L696.24,468.19 L692.33,472.9 Z" id="Shape" fill="#000000" opacity="0.1"></path>
            <path d="M563.64,355.64 C569.7,352.58 573.98,346.16 580.64,344.64 C584.11,343.84 587.73,344.53 591.23,345.22 L591.63,345.3 C614.427824,349.811064 630.249701,370.659168 628.46,393.83 L628.1,398.5 C627.88,401.26 627.79,404.39 629.73,406.37 C631.46,408.16 634.2,408.37 636.64,408.87 C649,411.51 656.57,424.62 658.09,437.18 C659.61,449.74 656.67,462.35 656.09,474.97 C655.51,487.59 657.83,501.52 667.37,509.81 C682.37,522.81 705.17,515.41 725.02,514.22 C716.24,514.22 709.66,505.16 709.18,496.4 C708.7,487.64 712.6,479.3 716.33,471.4 C720.06,463.5 723.8,455 722.97,446.26 C721.83,434.26 712.37,424.65 708.75,413.1 C704.53,399.66 708.6,385.23 710.51,371.26 C714.1,345.1 708.51,315.65 688.26,298.74 C679.78,291.67 669.41,287.32 660.09,281.4 C643.39,270.81 630.22,255.28 613.34,244.98 C596.46,234.68 572.76,230.86 558.03,244.06 C552.33,249.17 548.65,256.26 542.79,261.19 C531.34,270.84 513.14,271.02 503.96,282.86 C496.06,293.05 498.2,307.52 500.73,320.17 C504.1,337.04 502.2,350.17 520.23,353.17 C532.43,355.1 551.93,361.49 563.64,355.64 Z" id="Shape" fill="#373737"></path>
            <path d="M712.2,506.16 C697.75,507.93 683.43,508.84 672.91,499.72 C663.37,491.43 661.02,477.51 661.63,464.88 C662.24,452.25 665.16,439.63 663.63,427.08 C662.1,414.53 654.54,401.42 642.18,398.78 C639.74,398.26 637.01,398.07 635.27,396.28 C633.34,394.28 633.42,391.16 633.64,388.4 L634,383.73 C635.789016,360.561477 619.966311,339.716577 597.17,335.21 L596.77,335.13 C593.27,334.44 589.65,333.75 586.18,334.55 C579.56,336.08 575.28,342.55 569.18,345.55 C557.47,351.4 537.98,345.01 525.71,343 C507.71,340.05 509.59,326.9 506.21,310 C504.32,300.56 502.65,290.1 505.21,281.16 C504.73,281.67 504.27,282.16 503.83,282.77 C495.93,292.96 498.07,307.43 500.6,320.08 C503.97,336.95 502.07,350.08 520.1,353.08 C532.36,355.08 551.86,361.48 563.57,355.63 C569.63,352.57 573.91,346.15 580.57,344.63 C584.04,343.83 587.66,344.52 591.16,345.21 L591.56,345.29 C614.357824,349.801064 630.179701,370.649168 628.39,393.82 L628.03,398.49 C627.81,401.25 627.72,404.38 629.66,406.36 C631.39,408.15 634.13,408.36 636.57,408.86 C648.93,411.5 656.5,424.61 658.02,437.17 C659.54,449.73 656.61,462.34 656.02,474.96 C655.43,487.58 657.76,501.51 667.3,509.8 C682.3,522.8 705.1,515.4 724.95,514.21 C719.56,514.24 715.03,510.82 712.2,506.16 Z" id="Shape" fill="#000000" opacity="0.1"></path>
            <path d="M306.36,539.52 L368.01,516.52 C371.044736,515.38703 374.423609,516.926544 375.56,519.96 C376.69297,522.994736 375.153456,526.373609 372.12,527.51 L310.47,550.51 L297.25,549.19 L306.36,539.52 Z" id="Shape" fill="#5C5C8E"></path>
            <path d="M373.7,518.08 C374.83196,521.117558 373.287414,524.497652 370.25,525.63 L308.56,548.71 L298.64,547.71 L297.21,549.23 L310.43,550.55 L372.08,527.55 C375.113456,526.413609 376.65297,523.034736 375.52,520 C375.065714,518.784982 374.221764,517.75466 373.12,517.07 C373.341821,517.389486 373.535864,517.727388 373.7,518.08 Z" id="Shape" fill="#FFFFFF" opacity="0.1"></path>
            <polygon id="Shape" fill="#EFC8C4" points="306.37 539.52 310.47 550.51 299.63 549.42 297.26 549.18 300.5 545.74"></polygon>
            <path d="M300.49,545.71 C300.743232,545.899485 300.960063,546.133256 301.13,546.4 C301.336864,546.726672 301.336864,547.143328 301.13,547.47 C300.959546,547.646221 300.759948,547.79169 300.54,547.9 C300.038449,548.235347 299.715085,548.779187 299.66,549.38 L297.28,549.15 L300.49,545.71 Z" id="Shape" fill="#727A9C"></path>
            <path d="M499.93,609.71 C499.93,609.71 553.33,598.5 642.93,612.71 L607.83,586.95 L543.97,573.88 L498.79,585.88 L499.93,609.71 Z" id="Shape" fill="#FFFFFF"></path>
            <path d="M499.93,609.71 C499.93,609.71 553.33,598.5 642.93,612.71 L607.83,586.95 L543.97,573.88 L498.79,585.88 L499.93,609.71 Z" id="Shape" fill="#000000" opacity="0.1"></path>
            <path d="M493.67,621.83 C493.67,621.83 520.56,549.09 658.67,622.06 L609.1,590.16 C609.1,590.16 490.35,557.35 476.63,595.16 L493.67,621.83 Z" id="Shape" fill="#FFFFFF"></path>
            <path d="M493.67,621.78 C493.67,621.78 520.56,544.01 658.67,623.18 L609.1,588.58 C609.1,588.58 490.31,549.34 476.56,590.41 L493.67,621.78 Z" id="Shape" fill="#000000" opacity="0.1"></path>
            <path d="M493.67,621.81 C493.67,621.81 520.56,542.89 658.67,622.06 L609.1,587.46 C609.1,587.46 490.35,549.34 476.63,590.46 L493.67,621.81 Z" id="Shape" fill="#FFFFFF"></path>
            <path d="M493.67,621.83 C493.67,621.83 520.56,534.12 658.67,623.18 L609.06,584.25 C609.06,584.25 490.31,544.25 476.59,590.41 L493.67,621.83 Z" id="Shape" fill="#000000" opacity="0.1"></path>
            <path d="M493.67,621.78 C493.67,621.78 520.56,533 658.67,622.06 L609.06,583.13 C609.06,583.13 490.31,543.13 476.59,589.29 L493.67,621.78 Z" id="Shape" fill="#FFFFFF"></path>
            <path d="M908.01,613.42 C908.01,613.42 874.86,648.93 904.7,666.18 C904.7,666.18 908.6,670.88 914.17,668.42 C914.17,668.42 912.29,666.75 916.06,663.53 C917.393034,662.374589 918.584653,661.065486 919.61,659.63 C921.00058,657.69206 921.723569,655.354629 921.67,652.97 C921.67,652.97 926.01,638.88 912.22,620.59 C912.22,620.59 910.97,614.47 909.91,613.8 L907.39,622.33 C907.39,622.33 913.72,623.94 916.1,628.76 C916.1,628.76 907.76,622.21 906.95,623.58 C906.79,623.86 905.82,628.17 905.82,628.17 C905.82,628.17 916.82,631.01 920.26,638.57 C920.26,638.57 911.37,629.44 905.44,629.8 L904.36,636.38 C904.36,636.38 916.13,638.82 920.36,647.28 C920.36,647.28 910.74,638.05 904.2,637.84 L904.01,644.45 C904.01,644.45 915.44,647.05 918.93,654.11 C918.93,654.11 906.74,644.58 904.07,645.97 C904.07,645.97 904.26,652.06 905.07,653.65 C905.07,653.65 913.23,655.65 914.89,659.99 C914.89,659.99 906.07,654.48 905.31,655.32 C905.31,655.32 907.68,663.18 910.98,666.53 C910.98,666.53 905.74,661.94 904.1,655.75 C904.1,655.75 901.88,659.62 902.44,663.42 C902.44,663.42 899.17,659.8 903.55,653.84 C903.55,653.84 901.95,647.64 902.35,646.66 C902.35,646.66 897.2,651.93 895.88,656.66 C895.88,656.66 894.88,650.74 902.34,644.95 L902.34,638.29 C902.34,638.29 895.16,644.9 893.68,648.99 C893.68,648.99 893.58,642.79 902.49,636.62 L903.49,630.15 C903.49,630.15 896.87,635.37 894.24,639.57 C894.24,639.57 895.38,633.79 903.84,628.31 L905.01,624.07 C905.01,624.07 900.25,627.97 899.01,629.21 C897.77,630.45 897.3,630.21 897.3,630.21 C899.24784,626.85702 902.08602,624.108831 905.5,622.27 C905.5,622.27 908.56,613.65 908.01,613.42 Z" id="Shape" fill="#6C63FF" opacity="0.1"></path>
            <path d="M1056.2,35.62 C1056.2,35.62 1011.91,55.62 1032.79,83.01 C1032.79,83.01 1034.58,88.86 1040.66,88.74 C1040.66,88.74 1039.57,86.47 1044.29,84.95 C1045.96732,84.4018673 1047.57228,83.6531096 1049.07,82.72 C1051.10066,81.4684947 1052.66948,79.5908205 1053.54,77.37 C1053.54,77.37 1062.98,66.05 1057.31,43.86 C1057.31,43.86 1058.52,37.73 1057.8,36.7 L1052.18,43.6 C1052.18,43.6 1057.4,47.52 1057.74,52.89 C1057.74,52.89 1052.58,43.63 1051.3,44.59 C1051.04,44.78 1048.49,48.38 1048.49,48.38 C1048.49,48.38 1057.49,55.24 1057.8,63.55 C1057.8,63.55 1053.12,51.69 1047.5,49.73 L1043.97,55.39 C1043.97,55.39 1053.89,62.18 1054.55,71.62 C1054.55,71.62 1049.23,59.4 1043.28,56.68 L1040.55,62.68 C1040.55,62.68 1050.1,69.49 1050.55,77.35 C1050.55,77.35 1042.98,63.85 1039.98,64.11 C1039.98,64.11 1037.81,69.79 1037.98,71.58 C1037.98,71.58 1044.72,76.58 1044.6,81.22 C1044.6,81.22 1038.6,72.74 1037.6,73.22 C1037.6,73.22 1036.75,81.38 1038.51,85.75 C1038.51,85.75 1035.44,79.49 1036.32,73.15 C1036.32,73.15 1032.77,75.87 1031.83,79.59 C1031.83,79.59 1030.21,74.98 1036.55,71.17 C1036.55,71.17 1037.46,64.84 1038.21,64.09 C1038.21,64.09 1031.42,66.96 1028.4,70.78 C1028.4,70.78 1029.75,64.93 1038.88,62.47 L1041.48,56.35 C1041.48,56.35 1032.31,59.67 1029.36,62.87 C1029.36,62.87 1031.66,57.11 1042.26,54.87 L1045.67,49.29 C1045.67,49.29 1037.55,51.56 1033.5,54.41 C1033.5,54.41 1036.79,49.53 1046.71,47.73 L1049.42,44.27 C1049.42,44.27 1043.52,46.03 1041.87,46.69 C1040.22,47.35 1039.87,46.96 1039.87,46.96 C1042.97822,44.6081391 1046.67966,43.1677309 1050.56,42.8 C1050.56,42.8 1056.56,36.02 1056.2,35.62 Z" id="Shape" fill="#6C63FF" opacity="0.1"></path>
            <path d="M635.83,48 C635.83,48 569.29,67 601.64,95.28 C601.64,95.28 604.51,101.28 613.72,101.28 C613.72,101.28 612,98.96 619.12,97.55 C621.571299,97.0569809 623.974045,96.3475351 626.3,95.43 C629.042892,94.4687321 631.377355,92.6032775 632.92,90.14 C632.92,90.14 646.92,78.94 637.73,56.36 C637.73,56.36 639.4,50.2 638.28,49.14 L629.96,55.96 C629.96,55.96 637.96,60.07 638.63,65.5 C638.63,65.5 630.56,56.01 628.63,56.94 C628.24,57.13 624.47,60.69 624.47,60.69 C624.47,60.69 638.35,67.87 638.98,76.28 C638.98,76.28 631.58,64.17 622.98,62.04 L617.78,67.66 C617.78,67.66 632.98,74.79 634.23,84.35 C634.23,84.35 625.85,71.86 616.77,68.95 L612.77,74.95 C612.77,74.95 627.41,82.09 628.37,90.05 C628.37,90.05 616.54,76.2 612,76.37 C612,76.37 608.87,82.07 609.15,83.88 C609.15,83.88 619.49,89.16 619.44,93.8 C619.44,93.8 610.1,85.06 608.56,85.52 C608.56,85.52 607.5,93.75 610.28,98.21 C610.28,98.21 605.46,91.8 606.62,85.42 C606.62,85.42 601.33,88.07 600,91.8 C600,91.8 597.42,87.11 606.92,83.43 C606.92,83.43 608.13,77.05 609.24,76.31 C609.24,76.31 599.04,79.03 594.57,82.81 C594.57,82.81 596.45,76.93 610.21,74.69 L613.99,68.57 C613.99,68.57 600.19,71.69 595.81,74.84 C595.81,74.84 599.14,69.08 615.14,67.08 L620.14,61.53 C620.14,61.53 607.9,63.6 601.84,66.38 C601.84,66.38 606.69,61.53 621.66,59.98 L625.66,56.56 C625.66,56.56 616.77,58.18 614.29,58.8 C611.81,59.42 611.29,59.02 611.29,59.02 C616.287441,56.6002525 621.739994,55.2643771 627.29,55.1 C627.29,55.1 636.41,48.42 635.83,48 Z" id="Shape" fill="#6C63FF" opacity="0.1"></path>
            <path d="M832.14,789.42 C832.14,789.42 865.64,754.23 835.97,736.69 C835.97,736.69 832.11,731.95 826.52,734.35 C826.52,734.35 828.39,736.04 824.59,739.23 C823.24667,740.372025 822.041787,741.667525 821,743.09 C819.587621,745.012656 818.843079,747.344615 818.88,749.73 C818.88,749.73 814.39,763.78 828.01,782.2 C828.01,782.2 829.2,788.33 830.25,789.02 L832.86,780.51 C832.86,780.51 826.54,778.84 824.21,774 C824.21,774 832.48,780.62 833.3,779.26 C833.47,778.98 834.48,774.69 834.48,774.69 C834.48,774.69 823.48,771.69 820.14,764.15 C820.14,764.15 828.94,773.37 834.88,773.06 L836.02,766.49 C836.02,766.49 824.28,763.94 820.11,755.49 C820.11,755.49 829.64,764.81 836.18,765.09 L836.43,758.47 C836.43,758.47 825.02,755.71 821.56,748.61 C821.56,748.61 833.66,758.27 836.34,756.9 C836.34,756.9 836.21,750.82 835.34,749.22 C835.34,749.22 827.2,747.08 825.58,742.78 C825.58,742.78 834.35,748.38 835.11,747.54 C835.11,747.54 832.82,739.66 829.55,736.28 C829.55,736.28 834.75,740.92 836.33,747.12 C836.33,747.12 838.59,743.27 838.06,739.47 C838.06,739.47 841.3,743.13 836.86,749.04 C836.86,749.04 838.4,755.26 837.99,756.23 C837.99,756.23 843.19,751.01 844.55,746.34 C844.55,746.34 845.55,752.27 837.98,757.98 L837.88,764.64 C837.88,764.64 845.12,758.1 846.64,754.02 C846.64,754.02 846.64,760.23 837.71,766.31 L836.71,772.77 C836.71,772.77 843.38,767.61 846.05,763.44 C846.05,763.44 844.85,769.2 836.34,774.6 L835.13,778.83 C835.13,778.83 839.93,774.98 841.21,773.75 C842.49,772.52 842.93,772.75 842.93,772.75 C840.951691,776.086663 838.085038,778.807906 834.65,780.61 C834.65,780.61 831.64,789.18 832.14,789.42 Z" id="Shape" fill="#6C63FF" opacity="0.1"></path>
            <path d="M505.41,1.24 C505.41,1.24 511.12,49.48 543.56,37.84 C543.56,37.84 549.67,37.89 551.39,32.05 C551.39,32.05 548.89,32.41 548.87,27.45 C548.846895,25.6855677 548.615288,23.9300526 548.18,22.22 C547.604301,19.9064352 546.287271,17.8448435 544.43,16.35 C544.43,16.35 536.47,3.93 513.56,2.71 C513.56,2.71 508.08,-0.29 506.88,0.09 L511.77,7.52 C511.77,7.52 517.08,3.72 522.3,5.02 C522.3,5.02 511.92,7.16 512.45,8.66 C512.55,8.97 515.21,12.48 515.21,12.48 C515.21,12.48 524.56,5.88 532.56,8.13 C532.56,8.13 519.85,9.01 516.29,13.78 L520.56,18.86 C520.56,18.86 530.02,11.44 539.23,13.65 C539.23,13.65 525.97,15.05 521.58,19.9 L526.56,24.32 C526.56,24.32 535.92,17.26 543.56,19.16 C543.56,19.16 528.4,22.32 527.74,25.25 C527.74,25.25 532.51,29.03 534.27,29.43 C534.27,29.43 541.11,24.52 545.45,26.02 C545.45,26.02 535.55,29.2 535.7,30.32 C535.7,30.32 543.23,33.58 547.92,33.22 C547.92,33.22 541.03,34.22 535.25,31.52 C535.25,31.52 536.77,35.71 540.04,37.74 C540.04,37.74 535.16,37.89 533.43,30.74 C533.43,30.74 527.67,27.96 527.18,27.03 C527.18,27.03 527.88,34.36 530.61,38.39 C530.61,38.39 525.43,35.39 525.83,25.9 L520.83,21.57 C520.83,21.57 521.24,31.32 523.4,35.1 C523.4,35.1 518.6,31.17 519.64,20.38 L515.35,15.45 C515.35,15.45 515.06,23.87 516.56,28.59 C516.56,28.59 512.89,23.99 514.17,13.99 L511.68,10.36 C511.68,10.36 511.59,16.51 511.68,18.29 C511.77,20.07 511.34,20.24 511.34,20.24 C510.025663,16.5759308 509.755612,12.6186541 510.56,8.81 C510.56,8.81 505.91,1 505.41,1.24 Z" id="Shape" fill="#6C63FF" opacity="0.1"></path>
            <path d="M747.87,680.01 C747.87,680.01 701.05,667.01 699.55,701.45 C699.55,701.45 697.19,707.09 701.94,710.89 C701.94,710.89 702.55,708.45 707.15,710.3 C708.790888,710.94932 710.502758,711.402462 712.25,711.65 C714.612908,711.990444 717.022299,711.547903 719.11,710.39 C719.11,710.39 733.61,707.73 743.45,687.05 C743.45,687.05 748.3,683.12 748.45,681.86 L739.72,683.57 C739.72,683.57 741.22,689.93 738.04,694.27 C738.04,694.27 740.04,683.85 738.41,683.77 C738.08,683.77 733.82,684.88 733.82,684.88 C733.82,684.88 736.38,695.94 731.27,702.49 C731.27,702.49 735.27,690.39 732.2,685.29 L725.86,687.38 C725.86,687.38 729.14,698.94 723.6,706.62 C723.6,706.62 727.34,693.83 724.5,687.93 L718.56,690.82 C718.56,690.82 721.56,702.16 716.89,708.52 C716.89,708.52 719.71,693.3 717.24,691.57 C717.24,691.57 711.94,694.57 710.91,696.03 C710.91,696.03 712.91,704.22 709.83,707.67 C709.83,707.67 710.63,697.3 709.54,697.02 C709.54,697.02 703.66,702.75 702.22,707.23 C702.22,707.23 703.87,700.46 708.6,696.15 C708.6,696.15 704.14,695.97 701.03,698.22 C701.03,698.22 702.73,693.65 710.03,694.78 C710.03,694.78 714.79,690.49 715.84,690.4 C715.84,690.4 708.84,688.26 704.02,689.26 C704.02,689.26 708.8,685.62 717.39,689.58 L723.31,686.58 C723.31,686.58 714.13,683.27 709.82,683.84 C709.82,683.84 715.27,680.84 724.82,685.93 L731,683.82 C731,683.82 723.32,680.37 718.38,679.97 C718.38,679.97 724.03,678.32 732.8,683.29 L737.1,682.36 C737.1,682.36 731.44,679.94 729.75,679.36 C728.06,678.78 728.07,678.36 728.07,678.36 C731.94311,678.537237 735.691546,679.783254 738.9,681.96 C738.9,681.96 747.9,680.56 747.87,680.01 Z" id="Shape" fill="#6C63FF" opacity="0.1"></path>
        </g>
    </g>
</svg>